<mxfile host="65bd71144e">
    <diagram id="YUT_s7ujrJOv3HKdxeZd" name="Page-1">
        <mxGraphModel dx="1908" dy="464" grid="1" gridSize="10" guides="1" tooltips="1" connect="1" arrows="1" fold="1" page="1" pageScale="1" pageWidth="827" pageHeight="1169" background="none" math="0" shadow="1">
            <root>
                <mxCell id="0"/>
                <mxCell id="1" parent="0"/>
                <mxCell id="2" value="&lt;font style=&quot;font-size: 14px;&quot;&gt;&lt;b&gt;LOGO&lt;/b&gt;&lt;/font&gt;" style="ellipse;whiteSpace=wrap;html=1;aspect=fixed;fillColor=#fa6800;strokeColor=#C73500;shadow=1;fontColor=#000000;gradientColor=default;" parent="1" vertex="1">
                    <mxGeometry x="10" y="10" width="90" height="90" as="geometry"/>
                </mxCell>
                <mxCell id="4" value="vidÃ©o" style="rounded=1;whiteSpace=wrap;html=1;fontStyle=1;fillColor=#fa6800;fontColor=#000000;strokeColor=#C73500;gradientColor=default;strokeWidth=3;" parent="1" vertex="1">
                    <mxGeometry x="170" y="17.5" width="90" height="20" as="geometry"/>
                </mxCell>
                <mxCell id="5" value="&lt;b&gt;personnage&lt;/b&gt;" style="rounded=1;whiteSpace=wrap;html=1;fillColor=#fa6800;fontColor=#000000;strokeColor=#FF3333;gradientColor=default;strokeWidth=3;" parent="1" vertex="1">
                    <mxGeometry x="290" y="17.5" width="90" height="20" as="geometry"/>
                </mxCell>
                <mxCell id="6" value="&lt;font style=&quot;font-size: 20px;&quot;&gt;BANNIERE&lt;br&gt;&lt;/font&gt;" style="rounded=1;whiteSpace=wrap;html=1;fontStyle=1;fillColor=#FF6666;strokeColor=#6c8ebf;gradientColor=#3399FF;glass=1;" parent="1" vertex="1">
                    <mxGeometry x="117.5" y="250" width="590" height="60" as="geometry"/>
                </mxCell>
                <mxCell id="7" value="&lt;div style=&quot;&quot;&gt;&lt;b style=&quot;font-size: 19px; background-color: initial;&quot;&gt;FOOTER&lt;/b&gt;&lt;/div&gt;" style="rounded=1;whiteSpace=wrap;html=1;fillColor=#ffcd28;strokeColor=#d79b00;gradientColor=#d3a527;shadow=0;glass=1;align=center;" parent="1" vertex="1">
                    <mxGeometry x="10" y="1060" width="790" height="109" as="geometry"/>
                </mxCell>
                <mxCell id="50" style="edgeStyle=none;html=1;" parent="1" source="8" target="7" edge="1">
                    <mxGeometry relative="1" as="geometry"/>
                </mxCell>
                <mxCell id="8" value="&lt;b&gt;&lt;font style=&quot;font-size: 14px;&quot;&gt;LOGO&lt;/font&gt;&lt;/b&gt;" style="ellipse;whiteSpace=wrap;html=1;aspect=fixed;fillColor=#fa6800;fontColor=#000000;strokeColor=#C73500;shadow=1;gradientColor=default;" parent="1" vertex="1">
                    <mxGeometry x="700" y="1080" width="70" height="70" as="geometry"/>
                </mxCell>
                <mxCell id="11" value="&lt;b&gt;TEXTE&lt;/b&gt;" style="whiteSpace=wrap;html=1;aspect=fixed;fontSize=14;fillColor=#FFFF66;gradientColor=#D3A527;strokeColor=#d79b00;rounded=1;" parent="1" vertex="1">
                    <mxGeometry x="130" y="360" width="160" height="160" as="geometry"/>
                </mxCell>
                <mxCell id="12" value="&lt;b&gt;TEXTE&lt;/b&gt;" style="whiteSpace=wrap;html=1;aspect=fixed;fontSize=14;fillColor=#FFFF66;gradientColor=#D3A527;strokeColor=#d79b00;rounded=1;" parent="1" vertex="1">
                    <mxGeometry x="530" y="360" width="160" height="160" as="geometry"/>
                </mxCell>
                <mxCell id="21" style="edgeStyle=none;html=1;entryX=1;entryY=0.5;entryDx=0;entryDy=0;entryPerimeter=0;fontSize=30;exitX=1;exitY=0.5;exitDx=0;exitDy=0;exitPerimeter=0;" parent="1" source="19" target="19" edge="1">
                    <mxGeometry relative="1" as="geometry"/>
                </mxCell>
                <mxCell id="13" value="&lt;p style=&quot;line-height: 120%;&quot;&gt;PERSONNAGE&lt;/p&gt;" style="rounded=1;whiteSpace=wrap;html=1;fontSize=14;rotation=90;shadow=1;fillColor=#FF6666;strokeColor=#6C7EBF;gradientColor=#3399FF;dashed=1;strokeWidth=3;flipH=0;direction=west;flipV=1;imageAspect=0;" parent="1" vertex="1">
                    <mxGeometry x="10" y="760" width="190" height="100" as="geometry"/>
                </mxCell>
                <mxCell id="14" value="PERSONNAGE" style="rounded=1;whiteSpace=wrap;html=1;fontSize=14;rotation=90;verticalAlign=middle;shadow=1;fillColor=#FF6666;gradientColor=#3399FF;strokeColor=#6c8ebf;dashed=1;strokeWidth=3;" parent="1" vertex="1">
                    <mxGeometry x="143.75" y="726.25" width="190" height="97.5" as="geometry"/>
                </mxCell>
                <mxCell id="15" value="PERSONNAGE" style="rounded=1;whiteSpace=wrap;html=1;fontSize=14;rotation=90;shadow=1;fillColor=#FF6666;gradientColor=#3399FF;strokeColor=#6c8ebf;dashed=1;strokeWidth=3;" parent="1" vertex="1">
                    <mxGeometry x="285" y="770" width="185" height="102.5" as="geometry"/>
                </mxCell>
                <mxCell id="16" value="PERSONNAGE" style="rounded=1;whiteSpace=wrap;html=1;fontSize=14;rotation=90;shadow=1;fillColor=#FF6666;gradientColor=#3399FF;strokeColor=#7EA6E0;labelBackgroundColor=none;labelBorderColor=none;glass=0;dashed=1;strokeWidth=3;" parent="1" vertex="1">
                    <mxGeometry x="440" y="723.75" width="190" height="100" as="geometry"/>
                </mxCell>
                <mxCell id="17" value="PERSONNAGE" style="rounded=1;whiteSpace=wrap;html=1;fontSize=14;rotation=90;shadow=1;fillColor=#FF6666;gradientColor=#3399FF;strokeColor=#6c8ebf;dashed=1;strokeWidth=3;" parent="1" vertex="1">
                    <mxGeometry x="590" y="770" width="190" height="100" as="geometry"/>
                </mxCell>
                <mxCell id="18" value="Naruto" style="text;html=1;fontSize=30;fontStyle=1;verticalAlign=middle;align=center;" parent="1" vertex="1">
                    <mxGeometry x="280" y="140" width="300" height="60" as="geometry"/>
                </mxCell>
                <mxCell id="19" value="" style="shape=singleArrow;direction=west;whiteSpace=wrap;html=1;fontSize=30;arrowWidth=0.39896697998046876;arrowSize=0.45026041666666666;" parent="1" vertex="1">
                    <mxGeometry y="830" width="30" height="20" as="geometry"/>
                </mxCell>
                <mxCell id="24" value="" style="shape=singleArrow;whiteSpace=wrap;html=1;fontSize=30;arrowWidth=0.31563262939453124;arrowSize=0.5052998860677084;" parent="1" vertex="1">
                    <mxGeometry x="780" y="830" width="30" height="20" as="geometry"/>
                </mxCell>
                <mxCell id="26" value="" style="shape=actor;whiteSpace=wrap;html=1;shadow=1;fontSize=30;fillColor=#ffcd28;gradientColor=default;strokeColor=#FF3333;" parent="1" vertex="1">
                    <mxGeometry x="790" y="17.5" width="20" height="30" as="geometry"/>
                </mxCell>
                <mxCell id="28" value="&lt;b&gt;Personnages&lt;/b&gt;" style="rounded=1;whiteSpace=wrap;html=1;shadow=1;fontSize=30;gradientColor=default;" parent="1" vertex="1">
                    <mxGeometry x="200" y="570" width="380" height="40" as="geometry"/>
                </mxCell>
                <mxCell id="29" value="" style="shape=image;html=1;verticalLabelPosition=bottom;verticalAlign=top;imageAspect=1;aspect=fixed;image=img/clipart/Gear_128x128.png;rounded=1;shadow=0;glass=1;fontSize=30;gradientColor=default;labelBackgroundColor=#FF6666;labelBorderColor=default;" parent="1" vertex="1">
                    <mxGeometry x="550" y="576.5400000000001" width="22.95" height="26.92" as="geometry"/>
                </mxCell>
                <mxCell id="39" value="creer un wiki" style="rounded=1;whiteSpace=wrap;html=1;shadow=1;glass=0;labelBackgroundColor=none;labelBorderColor=none;sketch=0;strokeColor=#FF3333;strokeWidth=3;fontSize=12;fillColor=#FA6800;fontColor=#000000;gradientColor=default;fontStyle=1" parent="1" vertex="1">
                    <mxGeometry x="400" y="17.5" width="100" height="20" as="geometry"/>
                </mxCell>
                <mxCell id="41" style="edgeStyle=none;html=1;exitX=0.5;exitY=0;exitDx=0;exitDy=0;fontSize=14;fontColor=#000000;" parent="1" source="40" edge="1">
                    <mxGeometry relative="1" as="geometry">
                        <mxPoint x="710" y="40" as="targetPoint"/>
                    </mxGeometry>
                </mxCell>
                <mxCell id="40" value="s'inscrire" style="rounded=1;whiteSpace=wrap;html=1;shadow=1;glass=0;labelBackgroundColor=none;labelBorderColor=none;sketch=0;strokeColor=#FF3333;strokeWidth=3;fontSize=14;fillColor=#FA6800;gradientColor=default;fontStyle=1;fontColor=#000000;" parent="1" vertex="1">
                    <mxGeometry x="680" y="20" width="90" height="20" as="geometry"/>
                </mxCell>
                <mxCell id="42" value="shop" style="whiteSpace=wrap;html=1;fontSize=12;fillColor=#FA6800;strokeColor=#FF3333;fontColor=#000000;rounded=1;shadow=1;glass=0;labelBackgroundColor=none;labelBorderColor=none;sketch=0;strokeWidth=3;gradientColor=default;fontStyle=1;" parent="1" vertex="1">
                    <mxGeometry x="530" y="20" width="90" height="20" as="geometry"/>
                </mxCell>
                <mxCell id="49" value="" style="strokeWidth=1;shadow=0;dashed=0;align=center;html=1;shape=mxgraph.mockup.forms.searchBox;strokeColor=#999999;mainText=;strokeColor2=#008cff;fontColor=#666666;fontSize=17;align=left;spacingLeft=3;rounded=1;glass=0;labelBackgroundColor=default;labelBorderColor=none;sketch=0;fillColor=#FA6800;gradientColor=#3399FF;" parent="1" vertex="1">
                    <mxGeometry x="170" y="60" width="150" height="20" as="geometry"/>
                </mxCell>
            </root>
        </mxGraphModel>
    </diagram>
    <diagram id="t8V1XUjkvc39MwM4V1nI" name="Page-2">
        <mxGraphModel dx="1081" dy="464" grid="1" gridSize="10" guides="1" tooltips="1" connect="1" arrows="1" fold="1" page="1" pageScale="1" pageWidth="827" pageHeight="1169" math="0" shadow="0">
            <root>
                <mxCell id="0"/>
                <mxCell id="1" parent="0"/>
                <mxCell id="emCws6qSijxj3bp87AuJ-1" value="&lt;font style=&quot;font-size: 14px;&quot;&gt;&lt;b&gt;LOGO&lt;/b&gt;&lt;/font&gt;" style="ellipse;whiteSpace=wrap;html=1;aspect=fixed;fillColor=#fa6800;strokeColor=#C73500;shadow=1;fontColor=#000000;gradientColor=default;" parent="1" vertex="1">
                    <mxGeometry x="20" y="10" width="100" height="100" as="geometry"/>
                </mxCell>
                <mxCell id="0qBHKrz01eXBWD-_i-Vw-1" value="&lt;b&gt;personnage&lt;/b&gt;" style="rounded=1;whiteSpace=wrap;html=1;fillColor=#fa6800;fontColor=#000000;strokeColor=#FF3333;gradientColor=default;strokeWidth=3;" parent="1" vertex="1">
                    <mxGeometry x="180" y="20" width="90" height="20" as="geometry"/>
                </mxCell>
                <mxCell id="l2ORwovyv8bdw-nrd6Qw-1" value="creer un wiki" style="rounded=1;whiteSpace=wrap;html=1;shadow=1;glass=0;labelBackgroundColor=none;labelBorderColor=none;sketch=0;strokeColor=#FF3333;strokeWidth=3;fontSize=14;fillColor=#FA6800;fontColor=#000000;gradientColor=default;fontStyle=1" parent="1" vertex="1">
                    <mxGeometry x="330" y="20" width="100" height="20" as="geometry"/>
                </mxCell>
                <mxCell id="KPOgGGw1RJxbc1qGQjFr-1" value="shop" style="whiteSpace=wrap;html=1;fontSize=14;fillColor=#FA6800;strokeColor=#FF3333;fontColor=#000000;rounded=1;shadow=1;glass=0;labelBackgroundColor=none;labelBorderColor=none;sketch=0;strokeWidth=3;gradientColor=default;fontStyle=1;" parent="1" vertex="1">
                    <mxGeometry x="480" y="20" width="90" height="20" as="geometry"/>
                </mxCell>
                <mxCell id="N6uxjqlUYIh5KC3Z_ZWI-1" value="s'inscrire" style="rounded=1;whiteSpace=wrap;html=1;shadow=1;glass=0;labelBackgroundColor=none;labelBorderColor=none;sketch=0;strokeColor=#FF3333;strokeWidth=3;fontSize=14;fillColor=#FA6800;gradientColor=default;fontStyle=1;fontColor=#000000;" parent="1" vertex="1">
                    <mxGeometry x="680" y="20" width="90" height="20" as="geometry"/>
                </mxCell>
                <mxCell id="FFrepByyzezydhPrb0vj-1" value="" style="shape=actor;whiteSpace=wrap;html=1;shadow=1;fontSize=30;fillColor=#ffcd28;gradientColor=default;strokeColor=#FF3333;" parent="1" vertex="1">
                    <mxGeometry x="800" y="15" width="20" height="30" as="geometry"/>
                </mxCell>
                <mxCell id="mqw6WBDj-yR8s3xBfGx0-1" value="" style="strokeWidth=1;shadow=0;dashed=0;align=center;html=1;shape=mxgraph.mockup.forms.searchBox;strokeColor=#999999;mainText=;strokeColor2=#008cff;fontColor=#666666;fontSize=17;align=left;spacingLeft=3;rounded=1;glass=0;labelBackgroundColor=default;labelBorderColor=none;sketch=0;fillColor=#FA6800;gradientColor=#3399FF;" parent="1" vertex="1">
                    <mxGeometry x="180" y="60" width="150" height="20" as="geometry"/>
                </mxCell>
                <mxCell id="D87cv_6E4kPiLL2oUB1Q-1" value="VidÃ©os" style="text;html=1;fontSize=30;fontStyle=1;verticalAlign=middle;align=center;" parent="1" vertex="1">
                    <mxGeometry x="280" y="120" width="300" height="60" as="geometry"/>
                </mxCell>
                <mxCell id="VFeMSWFF2VKr2H0dH0a_-1" value="&lt;div style=&quot;&quot;&gt;&lt;b style=&quot;font-size: 19px; background-color: initial;&quot;&gt;FOOTER&lt;/b&gt;&lt;/div&gt;" style="rounded=1;whiteSpace=wrap;html=1;fillColor=#ffcd28;strokeColor=#d79b00;gradientColor=#d3a527;shadow=0;glass=1;align=center;" parent="1" vertex="1">
                    <mxGeometry x="20" y="1040" width="800" height="129" as="geometry"/>
                </mxCell>
                <mxCell id="5mpOr6UJCFV6SyByS3IB-1" value="&lt;b&gt;&lt;font style=&quot;font-size: 14px;&quot;&gt;LOGO&lt;/font&gt;&lt;/b&gt;" style="ellipse;whiteSpace=wrap;html=1;aspect=fixed;fillColor=#fa6800;fontColor=#000000;strokeColor=#C73500;shadow=1;gradientColor=default;" parent="1" vertex="1">
                    <mxGeometry x="740" y="1080" width="70" height="70" as="geometry"/>
                </mxCell>
                <mxCell id="dAvVVGZJhjn-NE-FV8gR-1" value="vidÃ©o" style="rounded=1;whiteSpace=wrap;html=1;shadow=1;glass=0;labelBackgroundColor=none;labelBorderColor=none;sketch=0;strokeColor=#6C7EBF;strokeWidth=3;fontSize=14;fontColor=#000000;fillColor=#FFFF66;gradientColor=#3399FF;" parent="1" vertex="1">
                    <mxGeometry x="80" y="280" width="160" height="70" as="geometry"/>
                </mxCell>
                <mxCell id="dAvVVGZJhjn-NE-FV8gR-10" value="vidÃ©o" style="rounded=1;whiteSpace=wrap;html=1;shadow=1;glass=0;labelBackgroundColor=none;labelBorderColor=none;sketch=0;strokeColor=#6C7EBF;strokeWidth=3;fontSize=14;fontColor=#000000;fillColor=#FFFF66;gradientColor=#3399FF;" parent="1" vertex="1">
                    <mxGeometry x="340" y="280" width="160" height="70" as="geometry"/>
                </mxCell>
                <mxCell id="dAvVVGZJhjn-NE-FV8gR-11" value="vidÃ©o" style="rounded=1;whiteSpace=wrap;html=1;shadow=1;glass=0;labelBackgroundColor=none;labelBorderColor=none;sketch=0;strokeColor=#6C7EBF;strokeWidth=3;fontSize=14;fontColor=#000000;fillColor=#FFFF66;gradientColor=#3399FF;" parent="1" vertex="1">
                    <mxGeometry x="590" y="280" width="160" height="70" as="geometry"/>
                </mxCell>
                <mxCell id="dAvVVGZJhjn-NE-FV8gR-12" value="vidÃ©o" style="rounded=1;whiteSpace=wrap;html=1;shadow=1;glass=0;labelBackgroundColor=none;labelBorderColor=none;sketch=0;strokeColor=#6C7EBF;strokeWidth=3;fontSize=14;fontColor=#000000;fillColor=#FFFF66;gradientColor=#3399FF;" parent="1" vertex="1">
                    <mxGeometry x="80" y="460" width="160" height="70" as="geometry"/>
                </mxCell>
                <mxCell id="dAvVVGZJhjn-NE-FV8gR-13" value="vidÃ©o" style="rounded=1;whiteSpace=wrap;html=1;shadow=1;glass=0;labelBackgroundColor=none;labelBorderColor=none;sketch=0;strokeColor=#6C7EBF;strokeWidth=3;fontSize=14;fontColor=#000000;fillColor=#FFFF66;gradientColor=#3399FF;" parent="1" vertex="1">
                    <mxGeometry x="350" y="460" width="160" height="70" as="geometry"/>
                </mxCell>
                <mxCell id="dAvVVGZJhjn-NE-FV8gR-14" value="vidÃ©o" style="rounded=1;whiteSpace=wrap;html=1;shadow=1;glass=0;labelBackgroundColor=none;labelBorderColor=none;sketch=0;strokeColor=#6C7EBF;strokeWidth=3;fontSize=14;fontColor=#000000;fillColor=#FFFF66;gradientColor=#3399FF;" parent="1" vertex="1">
                    <mxGeometry x="590" y="460" width="160" height="70" as="geometry"/>
                </mxCell>
                <mxCell id="dAvVVGZJhjn-NE-FV8gR-15" value="vidÃ©o" style="rounded=1;whiteSpace=wrap;html=1;shadow=1;glass=0;labelBackgroundColor=none;labelBorderColor=none;sketch=0;strokeColor=#6C7EBF;strokeWidth=3;fontSize=14;fontColor=#000000;fillColor=#FFFF66;gradientColor=#3399FF;" parent="1" vertex="1">
                    <mxGeometry x="80" y="630" width="160" height="70" as="geometry"/>
                </mxCell>
                <mxCell id="dAvVVGZJhjn-NE-FV8gR-16" value="vidÃ©o" style="rounded=1;whiteSpace=wrap;html=1;shadow=1;glass=0;labelBackgroundColor=none;labelBorderColor=none;sketch=0;strokeColor=#6C7EBF;strokeWidth=3;fontSize=14;fontColor=#000000;fillColor=#FFFF66;gradientColor=#3399FF;" parent="1" vertex="1">
                    <mxGeometry x="340" y="630" width="160" height="70" as="geometry"/>
                </mxCell>
                <mxCell id="dAvVVGZJhjn-NE-FV8gR-17" value="vidÃ©o" style="rounded=1;whiteSpace=wrap;html=1;shadow=1;glass=0;labelBackgroundColor=none;labelBorderColor=none;sketch=0;strokeColor=#6C7EBF;strokeWidth=3;fontSize=14;fontColor=#000000;fillColor=#FFFF66;gradientColor=#3399FF;" parent="1" vertex="1">
                    <mxGeometry x="590" y="630" width="160" height="70" as="geometry"/>
                </mxCell>
                <mxCell id="ubYsrAvkgrjidyL9QlyW-1" value="TEXTE" style="rounded=1;whiteSpace=wrap;html=1;shadow=1;glass=0;labelBackgroundColor=none;labelBorderColor=none;sketch=0;strokeColor=#6C7EBF;strokeWidth=3;fontSize=16;fontColor=#000000;fillColor=#FFFF66;gradientColor=#F0F0F0;" parent="1" vertex="1">
                    <mxGeometry x="180" y="860" width="460" height="80" as="geometry"/>
                </mxCell>
            </root>
        </mxGraphModel>
    </diagram>
    <diagram id="wrUiviP3lnKhbfWm0edT" name="Page-3">
        <mxGraphModel dx="1081" dy="464" grid="1" gridSize="10" guides="1" tooltips="1" connect="1" arrows="1" fold="1" page="1" pageScale="1" pageWidth="827" pageHeight="1169" math="0" shadow="0">
            <root>
                <mxCell id="0"/>
                <mxCell id="1" parent="0"/>
                <mxCell id="mNpcMiLD_wIxPYkmXypt-1" value="&lt;b&gt;&lt;font style=&quot;font-size: 14px;&quot;&gt;LOGO&lt;/font&gt;&lt;/b&gt;" style="ellipse;whiteSpace=wrap;html=1;aspect=fixed;fillColor=#fa6800;fontColor=#000000;strokeColor=#C73500;shadow=1;gradientColor=default;" parent="1" vertex="1">
                    <mxGeometry x="10" y="10" width="80" height="80" as="geometry"/>
                </mxCell>
                <mxCell id="ylmWm-S3hDzhWKcPVPWf-1" value="&lt;div style=&quot;&quot;&gt;&lt;b style=&quot;font-size: 19px; background-color: initial;&quot;&gt;FOOTER&lt;/b&gt;&lt;/div&gt;" style="rounded=1;whiteSpace=wrap;html=1;fillColor=#ffcd28;strokeColor=#d79b00;gradientColor=#d3a527;shadow=0;glass=1;align=center;" parent="1" vertex="1">
                    <mxGeometry y="1020" width="820" height="149" as="geometry"/>
                </mxCell>
                <mxCell id="2iPPofg-bhi5IMJcmlNR-1" value="&lt;b&gt;&lt;font style=&quot;font-size: 14px;&quot;&gt;LOGO&lt;/font&gt;&lt;/b&gt;" style="ellipse;whiteSpace=wrap;html=1;aspect=fixed;fillColor=#fa6800;fontColor=#000000;strokeColor=#C73500;shadow=1;gradientColor=default;" parent="1" vertex="1">
                    <mxGeometry x="750" y="1090" width="70" height="70" as="geometry"/>
                </mxCell>
                <mxCell id="eGkkXsQKj11jVLS1namp-1" value="vidÃ©os" style="rounded=1;whiteSpace=wrap;html=1;fontStyle=1;fillColor=#fa6800;fontColor=#000000;strokeColor=#C73500;gradientColor=default;strokeWidth=3;" parent="1" vertex="1">
                    <mxGeometry x="170" y="20" width="90" height="20" as="geometry"/>
                </mxCell>
                <mxCell id="3Yn99GRlRamSdVd2df5C-1" value="creer un wiki" style="rounded=1;whiteSpace=wrap;html=1;shadow=1;glass=0;labelBackgroundColor=none;labelBorderColor=none;sketch=0;strokeColor=#FF3333;strokeWidth=3;fontSize=14;fillColor=#FA6800;fontColor=#000000;gradientColor=default;fontStyle=1" parent="1" vertex="1">
                    <mxGeometry x="310" y="20" width="100" height="20" as="geometry"/>
                </mxCell>
                <mxCell id="uFRCXQny2_XFgkEGdzQ4-1" value="shop" style="whiteSpace=wrap;html=1;fontSize=14;fillColor=#FA6800;strokeColor=#FF3333;fontColor=#000000;rounded=1;shadow=1;glass=0;labelBackgroundColor=none;labelBorderColor=none;sketch=0;strokeWidth=3;gradientColor=default;fontStyle=1;" parent="1" vertex="1">
                    <mxGeometry x="460" y="20" width="90" height="20" as="geometry"/>
                </mxCell>
                <mxCell id="ZK-7itS1ty_KYAhe13Tx-1" value="s'inscrire" style="rounded=1;whiteSpace=wrap;html=1;shadow=1;glass=0;labelBackgroundColor=none;labelBorderColor=none;sketch=0;strokeColor=#FF3333;strokeWidth=3;fontSize=14;fillColor=#FA6800;gradientColor=default;fontStyle=1;fontColor=#000000;" parent="1" vertex="1">
                    <mxGeometry x="670" y="20" width="90" height="20" as="geometry"/>
                </mxCell>
                <mxCell id="el-DdQmtqZHQukaouKoR-1" value="" style="shape=actor;whiteSpace=wrap;html=1;shadow=1;fontSize=30;fillColor=#ffcd28;gradientColor=default;strokeColor=#FF3333;" parent="1" vertex="1">
                    <mxGeometry x="790" y="15" width="20" height="30" as="geometry"/>
                </mxCell>
                <mxCell id="5Xzadpm3zxBoR4Eonc2A-1" value="" style="strokeWidth=1;shadow=0;dashed=0;align=center;html=1;shape=mxgraph.mockup.forms.searchBox;strokeColor=#999999;mainText=;strokeColor2=#008cff;fontColor=#666666;fontSize=17;align=left;spacingLeft=3;rounded=1;glass=0;labelBackgroundColor=default;labelBorderColor=none;sketch=0;fillColor=#FA6800;gradientColor=#3399FF;" parent="1" vertex="1">
                    <mxGeometry x="170" y="60" width="150" height="20" as="geometry"/>
                </mxCell>
                <mxCell id="-sYcX4PB_eMJiCF8L0Y7-1" value="PERSONNAGES" style="text;html=1;fontSize=36;fontStyle=1;verticalAlign=middle;align=center;" parent="1" vertex="1">
                    <mxGeometry x="230" y="140" width="300" height="60" as="geometry"/>
                </mxCell>
                <mxCell id="oHu_nuqhFCPDyi_ZDhKG-19" value="" style="edgeStyle=none;html=1;fontSize=36;fontColor=#000000;" parent="1" source="oHu_nuqhFCPDyi_ZDhKG-1" target="oHu_nuqhFCPDyi_ZDhKG-18" edge="1">
                    <mxGeometry relative="1" as="geometry"/>
                </mxCell>
                <mxCell id="oHu_nuqhFCPDyi_ZDhKG-1" value="&lt;p style=&quot;line-height: 120%;&quot;&gt;PERSONNAGE&lt;/p&gt;" style="rounded=1;whiteSpace=wrap;html=1;fontSize=14;rotation=90;shadow=1;fillColor=#FF6666;strokeColor=#6C7EBF;gradientColor=#3399FF;dashed=1;strokeWidth=3;flipH=0;direction=west;flipV=1;imageAspect=0;" parent="1" vertex="1">
                    <mxGeometry x="89" y="340" width="240" height="120" as="geometry"/>
                </mxCell>
                <mxCell id="oHu_nuqhFCPDyi_ZDhKG-17" value="" style="edgeStyle=none;html=1;fontSize=36;fontColor=#000000;" parent="1" source="oHu_nuqhFCPDyi_ZDhKG-2" target="oHu_nuqhFCPDyi_ZDhKG-16" edge="1">
                    <mxGeometry relative="1" as="geometry"/>
                </mxCell>
                <mxCell id="oHu_nuqhFCPDyi_ZDhKG-2" value="&lt;p style=&quot;line-height: 120%;&quot;&gt;PERSONNAGE&lt;/p&gt;" style="rounded=1;whiteSpace=wrap;html=1;fontSize=14;rotation=90;shadow=1;fillColor=#FF6666;strokeColor=#6C7EBF;gradientColor=#3399FF;dashed=1;strokeWidth=3;flipH=0;direction=west;flipV=1;imageAspect=0;" parent="1" vertex="1">
                    <mxGeometry x="499" y="340" width="240" height="120" as="geometry"/>
                </mxCell>
                <mxCell id="oHu_nuqhFCPDyi_ZDhKG-6" value="" style="edgeStyle=none;html=1;fontSize=36;fontColor=#000000;" parent="1" source="oHu_nuqhFCPDyi_ZDhKG-3" target="oHu_nuqhFCPDyi_ZDhKG-5" edge="1">
                    <mxGeometry relative="1" as="geometry"/>
                </mxCell>
                <mxCell id="oHu_nuqhFCPDyi_ZDhKG-3" value="&lt;p style=&quot;line-height: 120%;&quot;&gt;PERSONNAGE&lt;/p&gt;" style="rounded=1;whiteSpace=wrap;html=1;fontSize=14;rotation=90;shadow=1;fillColor=#FF6666;strokeColor=#6C7EBF;gradientColor=#3399FF;dashed=1;strokeWidth=3;flipH=0;direction=west;flipV=1;imageAspect=0;" parent="1" vertex="1">
                    <mxGeometry x="89" y="700" width="240" height="120" as="geometry"/>
                </mxCell>
                <mxCell id="oHu_nuqhFCPDyi_ZDhKG-15" value="" style="edgeStyle=none;html=1;fontSize=36;fontColor=#000000;" parent="1" source="oHu_nuqhFCPDyi_ZDhKG-4" target="oHu_nuqhFCPDyi_ZDhKG-14" edge="1">
                    <mxGeometry relative="1" as="geometry"/>
                </mxCell>
                <mxCell id="oHu_nuqhFCPDyi_ZDhKG-4" value="&lt;p style=&quot;line-height: 120%;&quot;&gt;PERSONNAGE&lt;/p&gt;" style="rounded=1;whiteSpace=wrap;html=1;fontSize=14;rotation=90;shadow=1;fillColor=#FF6666;strokeColor=#6C7EBF;gradientColor=#3399FF;dashed=1;strokeWidth=3;flipH=0;direction=west;flipV=1;imageAspect=0;" parent="1" vertex="1">
                    <mxGeometry x="499" y="700" width="240" height="120" as="geometry"/>
                </mxCell>
                <mxCell id="oHu_nuqhFCPDyi_ZDhKG-5" value="descriptif&amp;nbsp;" style="whiteSpace=wrap;html=1;fontSize=14;fillColor=#FF6666;strokeColor=#6C7EBF;rounded=1;shadow=1;gradientColor=#3399FF;dashed=1;strokeWidth=3;" parent="1" vertex="1">
                    <mxGeometry x="149" y="900" width="120" height="60" as="geometry"/>
                </mxCell>
                <mxCell id="oHu_nuqhFCPDyi_ZDhKG-14" value="descriptif" style="whiteSpace=wrap;html=1;fontSize=14;fillColor=#FF6666;strokeColor=#6C7EBF;rounded=1;shadow=1;gradientColor=#3399FF;dashed=1;strokeWidth=3;" parent="1" vertex="1">
                    <mxGeometry x="559" y="900" width="120" height="60" as="geometry"/>
                </mxCell>
                <mxCell id="oHu_nuqhFCPDyi_ZDhKG-16" value="descriptif" style="whiteSpace=wrap;html=1;fontSize=14;fillColor=#FF6666;strokeColor=#6C7EBF;rounded=1;shadow=1;gradientColor=#3399FF;dashed=1;strokeWidth=3;" parent="1" vertex="1">
                    <mxGeometry x="559" y="550" width="120" height="60" as="geometry"/>
                </mxCell>
                <mxCell id="oHu_nuqhFCPDyi_ZDhKG-18" value="descriptif" style="whiteSpace=wrap;html=1;fontSize=14;fillColor=#FF6666;strokeColor=#6C7EBF;rounded=1;shadow=1;gradientColor=#3399FF;dashed=1;strokeWidth=3;" parent="1" vertex="1">
                    <mxGeometry x="149" y="560" width="120" height="60" as="geometry"/>
                </mxCell>
                <mxCell id="bc65jwXES3e3Kg_Vdt9x-1" value="" style="shape=singleArrow;direction=west;whiteSpace=wrap;html=1;fontSize=30;arrowWidth=0.39896697998046876;arrowSize=0.45026041666666666;" parent="1" vertex="1">
                    <mxGeometry x="20" y="560" width="30" height="20" as="geometry"/>
                </mxCell>
                <mxCell id="8uXt4zALPwDvcF-EBD8L-1" value="" style="shape=singleArrow;whiteSpace=wrap;html=1;fontSize=30;arrowWidth=0.31563262939453124;arrowSize=0.5052998860677084;" parent="1" vertex="1">
                    <mxGeometry x="790" y="565" width="30" height="20" as="geometry"/>
                </mxCell>
            </root>
        </mxGraphModel>
    </diagram>
    <diagram id="qMbWik1ezPM2HLA2lZ70" name="Page-4">
        <mxGraphModel dx="1081" dy="464" grid="1" gridSize="10" guides="1" tooltips="1" connect="1" arrows="1" fold="1" page="1" pageScale="1" pageWidth="827" pageHeight="1169" math="0" shadow="0">
            <root>
                <mxCell id="0"/>
                <mxCell id="1" parent="0"/>
                <mxCell id="th5Ddw6EgzMGTl-mA93I-1" value="&lt;b&gt;&lt;font style=&quot;font-size: 14px;&quot;&gt;LOGO&lt;/font&gt;&lt;/b&gt;" style="ellipse;whiteSpace=wrap;html=1;aspect=fixed;fillColor=#fa6800;fontColor=#000000;strokeColor=#C73500;shadow=1;gradientColor=default;" parent="1" vertex="1">
                    <mxGeometry x="20" y="10" width="90" height="90" as="geometry"/>
                </mxCell>
                <mxCell id="vRWvR08-T6FumdI2oQ0y-1" value="vidÃ©os" style="rounded=1;whiteSpace=wrap;html=1;fontStyle=1;fillColor=#fa6800;fontColor=#000000;strokeColor=#C73500;gradientColor=default;strokeWidth=3;" parent="1" vertex="1">
                    <mxGeometry x="170" y="30" width="90" height="20" as="geometry"/>
                </mxCell>
                <mxCell id="Tx-IWipKNwvK8D0KB16H-1" value="personnages" style="rounded=1;whiteSpace=wrap;html=1;shadow=1;glass=0;labelBackgroundColor=none;labelBorderColor=none;sketch=0;strokeColor=#FF3333;strokeWidth=3;fontSize=12;fillColor=#FA6800;fontColor=#000000;gradientColor=default;fontStyle=1" parent="1" vertex="1">
                    <mxGeometry x="330" y="30" width="100" height="20" as="geometry"/>
                </mxCell>
                <mxCell id="U1X7RrcNp1iW8OHnhmpq-1" value="shop" style="whiteSpace=wrap;html=1;fontSize=14;fillColor=#FA6800;strokeColor=#FF3333;fontColor=#000000;rounded=1;shadow=1;glass=0;labelBackgroundColor=none;labelBorderColor=none;sketch=0;strokeWidth=3;gradientColor=default;fontStyle=1;" parent="1" vertex="1">
                    <mxGeometry x="490" y="30" width="90" height="20" as="geometry"/>
                </mxCell>
                <mxCell id="-Ypc6_eWgJmPCKf_7mO3-1" value="s'inscrire" style="rounded=1;whiteSpace=wrap;html=1;shadow=1;glass=0;labelBackgroundColor=none;labelBorderColor=none;sketch=0;strokeColor=#FF3333;strokeWidth=3;fontSize=14;fillColor=#FA6800;gradientColor=default;fontStyle=1;fontColor=#000000;" parent="1" vertex="1">
                    <mxGeometry x="660" y="30" width="90" height="20" as="geometry"/>
                </mxCell>
                <mxCell id="FDxO1Ddm2xJ5wCPYNlss-1" value="" style="shape=actor;whiteSpace=wrap;html=1;shadow=1;fontSize=30;fillColor=#ffcd28;gradientColor=default;strokeColor=#FF3333;" parent="1" vertex="1">
                    <mxGeometry x="790" y="20" width="20" height="30" as="geometry"/>
                </mxCell>
                <mxCell id="ujdWEpaB9kEPbGLHi5JT-1" value="" style="strokeWidth=1;shadow=0;dashed=0;align=center;html=1;shape=mxgraph.mockup.forms.searchBox;strokeColor=#999999;mainText=;strokeColor2=#008cff;fontColor=#666666;fontSize=17;align=left;spacingLeft=3;rounded=1;glass=0;labelBackgroundColor=default;labelBorderColor=none;sketch=0;fillColor=#FA6800;gradientColor=#3399FF;" parent="1" vertex="1">
                    <mxGeometry x="170" y="70" width="150" height="20" as="geometry"/>
                </mxCell>
                <mxCell id="ExawqvMS_pnunRkVLKpc-1" value="CREER UN WIKI" style="text;html=1;fontSize=36;fontStyle=1;verticalAlign=middle;align=center;" parent="1" vertex="1">
                    <mxGeometry x="264" y="160" width="300" height="60" as="geometry"/>
                </mxCell>
                <mxCell id="kL8Ac1JrmKTyNEv91xMo-2" value="USERNAME" style="shape=ext;double=1;rounded=0;whiteSpace=wrap;html=1;shadow=1;glass=0;labelBackgroundColor=none;labelBorderColor=none;sketch=0;strokeColor=#6C7EBF;strokeWidth=3;fontSize=12;fontColor=#000000;fillColor=#000000;gradientColor=#F0F0F0;" parent="1" vertex="1">
                    <mxGeometry x="40" y="440" width="240" height="40" as="geometry"/>
                </mxCell>
                <mxCell id="kL8Ac1JrmKTyNEv91xMo-3" value="" style="sketch=0;pointerEvents=1;shadow=0;dashed=0;html=1;strokeColor=none;fillColor=#333333;labelPosition=center;verticalLabelPosition=bottom;verticalAlign=top;outlineConnect=0;align=center;shape=mxgraph.office.users.mail_user;rounded=1;glass=0;labelBackgroundColor=none;labelBorderColor=none;strokeWidth=3;fontSize=12;fontColor=#000000;gradientColor=default;" parent="1" vertex="1">
                    <mxGeometry x="350" y="460" width="148" height="160" as="geometry"/>
                </mxCell>
                <mxCell id="kL8Ac1JrmKTyNEv91xMo-5" value="NAME COMMUNITY.WIKI" style="shape=ext;double=1;rounded=0;whiteSpace=wrap;html=1;shadow=1;glass=0;labelBackgroundColor=none;labelBorderColor=none;sketch=0;strokeColor=#6C7EBF;strokeWidth=3;fontSize=12;fontColor=#000000;fillColor=#333333;gradientColor=default;" parent="1" vertex="1">
                    <mxGeometry x="270" y="280" width="246" height="40" as="geometry"/>
                </mxCell>
                <mxCell id="kL8Ac1JrmKTyNEv91xMo-6" value="LANGUAGE" style="shape=ext;double=1;rounded=0;whiteSpace=wrap;html=1;shadow=1;glass=0;labelBackgroundColor=none;labelBorderColor=none;sketch=0;strokeColor=#6C7EBF;strokeWidth=3;fontSize=12;fontColor=#000000;fillColor=#333333;gradientColor=default;" parent="1" vertex="1">
                    <mxGeometry x="544" y="660" width="246" height="40" as="geometry"/>
                </mxCell>
                <mxCell id="HgsEmEaJ8haOP8-wrZb5-1" value="&lt;div style=&quot;&quot;&gt;&lt;b style=&quot;font-size: 19px; background-color: initial;&quot;&gt;FOOTER&lt;/b&gt;&lt;/div&gt;" style="rounded=1;whiteSpace=wrap;html=1;fillColor=#ffcd28;strokeColor=#d79b00;gradientColor=#d3a527;shadow=0;glass=1;align=center;" parent="1" vertex="1">
                    <mxGeometry x="10" y="1040" width="810" height="129" as="geometry"/>
                </mxCell>
                <mxCell id="ya_YJSacH4scF2rIKmzI-1" value="&lt;b&gt;&lt;font style=&quot;font-size: 14px;&quot;&gt;LOGO&lt;/font&gt;&lt;/b&gt;" style="ellipse;whiteSpace=wrap;html=1;aspect=fixed;fillColor=#fa6800;fontColor=#000000;strokeColor=#C73500;shadow=1;gradientColor=default;" parent="1" vertex="1">
                    <mxGeometry x="750" y="1090" width="70" height="70" as="geometry"/>
                </mxCell>
                <mxCell id="ya_YJSacH4scF2rIKmzI-5" value="" style="points=[[0.145,0.145,0],[0.5,0,0],[0.855,0.145,0],[1,0.5,0],[0.855,0.855,0],[0.5,1,0],[0.145,0.855,0],[0,0.5,0]];shape=mxgraph.bpmn.event;html=1;verticalLabelPosition=bottom;labelBackgroundColor=#ffffff;verticalAlign=top;align=center;perimeter=ellipsePerimeter;outlineConnect=0;aspect=fixed;outline=boundInt;symbol=cancel;rounded=1;shadow=1;glass=0;labelBorderColor=none;sketch=0;strokeColor=#6C7EBF;strokeWidth=3;fontSize=12;fontColor=#000000;fillColor=#333333;gradientColor=default;" parent="1" vertex="1">
                    <mxGeometry x="720" y="930" width="55" height="55" as="geometry"/>
                </mxCell>
                <mxCell id="ya_YJSacH4scF2rIKmzI-6" value="" style="verticalLabelPosition=bottom;verticalAlign=top;html=1;shape=mxgraph.basic.tick;rounded=1;shadow=1;glass=0;labelBackgroundColor=none;labelBorderColor=none;sketch=0;strokeColor=#6C7EBF;strokeWidth=3;fontSize=12;fontColor=#000000;fillColor=#333333;gradientColor=default;" parent="1" vertex="1">
                    <mxGeometry x="80" y="910" width="60" height="75" as="geometry"/>
                </mxCell>
            </root>
        </mxGraphModel>
    </diagram>
    <diagram id="3GutV4k-yOgzlHW8Le08" name="Page-5">
        <mxGraphModel dx="1081" dy="464" grid="1" gridSize="10" guides="1" tooltips="1" connect="1" arrows="1" fold="1" page="1" pageScale="1" pageWidth="827" pageHeight="1169" math="0" shadow="0">
            <root>
                <mxCell id="0"/>
                <mxCell id="1" parent="0"/>
                <mxCell id="yWndour5MbBvv2n297j2-1" value="&lt;b&gt;&lt;font style=&quot;font-size: 14px;&quot;&gt;LOGO&lt;/font&gt;&lt;/b&gt;" style="ellipse;whiteSpace=wrap;html=1;aspect=fixed;fillColor=#fa6800;fontColor=#000000;strokeColor=#C73500;shadow=1;gradientColor=default;" parent="1" vertex="1">
                    <mxGeometry x="10" y="10" width="80" height="80" as="geometry"/>
                </mxCell>
                <mxCell id="34DwSFE7Rm0GQw8wKXMS-1" value="vidÃ©os" style="rounded=1;whiteSpace=wrap;html=1;fontStyle=1;fillColor=#fa6800;fontColor=#000000;strokeColor=#C73500;gradientColor=default;strokeWidth=3;" parent="1" vertex="1">
                    <mxGeometry x="160" y="20" width="90" height="20" as="geometry"/>
                </mxCell>
                <mxCell id="OZ4Y4qK33BCqCkwyPWs_-1" value="personnages" style="rounded=1;whiteSpace=wrap;html=1;shadow=1;glass=0;labelBackgroundColor=none;labelBorderColor=none;sketch=0;strokeColor=#FF3333;strokeWidth=3;fontSize=12;fillColor=#FA6800;fontColor=#000000;gradientColor=default;fontStyle=1" parent="1" vertex="1">
                    <mxGeometry x="310" y="20" width="100" height="20" as="geometry"/>
                </mxCell>
                <mxCell id="bpLQkuMzcmgMY-nlbVRJ-1" value="creer un wiki" style="rounded=1;whiteSpace=wrap;html=1;shadow=1;glass=0;labelBackgroundColor=none;labelBorderColor=none;sketch=0;strokeColor=#FF3333;strokeWidth=3;fontSize=14;fillColor=#FA6800;fontColor=#000000;gradientColor=default;fontStyle=1" parent="1" vertex="1">
                    <mxGeometry x="460" y="20" width="100" height="20" as="geometry"/>
                </mxCell>
                <mxCell id="75TCIRV_wlgwaA08zAPx-1" value="s'inscrire" style="rounded=1;whiteSpace=wrap;html=1;shadow=1;glass=0;labelBackgroundColor=none;labelBorderColor=none;sketch=0;strokeColor=#FF3333;strokeWidth=3;fontSize=14;fillColor=#FA6800;gradientColor=default;fontStyle=1;fontColor=#000000;" parent="1" vertex="1">
                    <mxGeometry x="670" y="20" width="90" height="20" as="geometry"/>
                </mxCell>
                <mxCell id="Hj2wzSnJWvo3G_61PuOl-1" value="" style="shape=actor;whiteSpace=wrap;html=1;shadow=1;fontSize=30;fillColor=#ffcd28;gradientColor=default;strokeColor=#FF3333;" parent="1" vertex="1">
                    <mxGeometry x="790" y="15" width="20" height="30" as="geometry"/>
                </mxCell>
                <mxCell id="Lb2ca5Oqn3dZn55YITvK-1" value="SHOP" style="text;html=1;fontSize=36;fontStyle=1;verticalAlign=middle;align=center;" parent="1" vertex="1">
                    <mxGeometry x="230" y="210" width="300" height="60" as="geometry"/>
                </mxCell>
                <mxCell id="RWgDRQaK0TEyYPvGBvjv-1" value="&lt;div style=&quot;&quot;&gt;&lt;span style=&quot;font-size: 19px;&quot;&gt;&lt;b&gt;footer : conditions generales&lt;/b&gt;&lt;/span&gt;&lt;/div&gt;" style="rounded=1;whiteSpace=wrap;html=1;fillColor=#ffcd28;strokeColor=#d79b00;gradientColor=#d3a527;shadow=0;glass=1;align=center;" parent="1" vertex="1">
                    <mxGeometry x="7" y="1030" width="820" height="139" as="geometry"/>
                </mxCell>
                <mxCell id="G6vOsjcFtY_mTVnjXahQ-1" value="&lt;b&gt;&lt;font style=&quot;font-size: 14px;&quot;&gt;LOGO&lt;/font&gt;&lt;/b&gt;" style="ellipse;whiteSpace=wrap;html=1;aspect=fixed;fillColor=#fa6800;fontColor=#000000;strokeColor=#C73500;shadow=1;gradientColor=default;" parent="1" vertex="1">
                    <mxGeometry x="750" y="1080" width="70" height="70" as="geometry"/>
                </mxCell>
                <mxCell id="kqtjyUk06VukVmzQbykB-1" value="" style="rounded=1;whiteSpace=wrap;html=1;shadow=1;glass=0;labelBackgroundColor=none;labelBorderColor=none;sketch=0;strokeColor=#6C7EBF;strokeWidth=3;fontSize=12;fontColor=#000000;fillColor=#333333;gradientColor=default;" parent="1" vertex="1">
                    <mxGeometry x="490" y="320" width="80" height="60" as="geometry"/>
                </mxCell>
                <mxCell id="kqtjyUk06VukVmzQbykB-2" value="" style="rounded=1;whiteSpace=wrap;html=1;shadow=1;glass=0;labelBackgroundColor=none;labelBorderColor=none;sketch=0;strokeColor=#6C7EBF;strokeWidth=3;fontSize=12;fontColor=#000000;fillColor=#333333;gradientColor=default;" parent="1" vertex="1">
                    <mxGeometry x="230" y="320" width="80" height="60" as="geometry"/>
                </mxCell>
                <mxCell id="kqtjyUk06VukVmzQbykB-3" value="" style="rounded=1;whiteSpace=wrap;html=1;shadow=1;glass=0;labelBackgroundColor=none;labelBorderColor=none;sketch=0;strokeColor=#6C7EBF;strokeWidth=3;fontSize=12;fontColor=#000000;fillColor=#333333;gradientColor=default;" parent="1" vertex="1">
                    <mxGeometry x="230" y="470" width="80" height="60" as="geometry"/>
                </mxCell>
                <mxCell id="kqtjyUk06VukVmzQbykB-4" value="" style="rounded=1;whiteSpace=wrap;html=1;shadow=1;glass=0;labelBackgroundColor=none;labelBorderColor=none;sketch=0;strokeColor=#6C7EBF;strokeWidth=3;fontSize=12;fontColor=#000000;fillColor=#333333;gradientColor=default;" parent="1" vertex="1">
                    <mxGeometry x="490" y="470" width="80" height="60" as="geometry"/>
                </mxCell>
                <mxCell id="kqtjyUk06VukVmzQbykB-5" value="" style="rounded=1;whiteSpace=wrap;html=1;shadow=1;glass=0;labelBackgroundColor=none;labelBorderColor=none;sketch=0;strokeColor=#6C7EBF;strokeWidth=3;fontSize=12;fontColor=#000000;fillColor=#333333;gradientColor=default;" parent="1" vertex="1">
                    <mxGeometry x="230" y="640" width="80" height="60" as="geometry"/>
                </mxCell>
                <mxCell id="kqtjyUk06VukVmzQbykB-6" value="" style="rounded=1;whiteSpace=wrap;html=1;shadow=1;glass=0;labelBackgroundColor=none;labelBorderColor=none;sketch=0;strokeColor=#6C7EBF;strokeWidth=3;fontSize=12;fontColor=#000000;fillColor=#333333;gradientColor=default;" parent="1" vertex="1">
                    <mxGeometry x="490" y="650" width="80" height="60" as="geometry"/>
                </mxCell>
                <mxCell id="vEFuKr55xie6XEF0NDE6-1" value="" style="strokeWidth=1;shadow=0;dashed=0;align=center;html=1;shape=mxgraph.mockup.forms.searchBox;strokeColor=#999999;mainText=;strokeColor2=#008cff;fontColor=#666666;fontSize=17;align=left;spacingLeft=3;rounded=1;glass=0;labelBackgroundColor=default;labelBorderColor=none;sketch=0;fillColor=#FA6800;gradientColor=#3399FF;" parent="1" vertex="1">
                    <mxGeometry x="160" y="70" width="150" height="20" as="geometry"/>
                </mxCell>
                <mxCell id="vEFuKr55xie6XEF0NDE6-5" value="" style="html=1;verticalLabelPosition=bottom;align=center;labelBackgroundColor=#ffffff;verticalAlign=top;strokeWidth=2;strokeColor=#0080F0;shadow=0;dashed=0;shape=mxgraph.ios7.icons.forward;" parent="1" vertex="1">
                    <mxGeometry x="600" y="820" width="30" height="16.8" as="geometry"/>
                </mxCell>
                <mxCell id="vEFuKr55xie6XEF0NDE6-7" value="" style="html=1;verticalLabelPosition=bottom;align=center;labelBackgroundColor=#ffffff;verticalAlign=top;strokeWidth=2;strokeColor=#0080F0;shadow=0;dashed=0;shape=mxgraph.ios7.icons.backward;" parent="1" vertex="1">
                    <mxGeometry x="200" y="820" width="30" height="16.8" as="geometry"/>
                </mxCell>
            </root>
        </mxGraphModel>
    </diagram>
    <diagram id="cu69ZFPmHRh_Ljx0JibN" name="mobile PAGE 5">
        <mxGraphModel dx="1081" dy="464" grid="1" gridSize="10" guides="1" tooltips="1" connect="1" arrows="1" fold="1" page="1" pageScale="1" pageWidth="827" pageHeight="1169" math="0" shadow="0">
            <root>
                <mxCell id="0"/>
                <mxCell id="1" parent="0"/>
                <mxCell id="P_gKs7CZ4XUXEtHGwaHF-1" value="" style="rounded=1;whiteSpace=wrap;html=1;rotation=90;" parent="1" vertex="1">
                    <mxGeometry x="38.69" y="269.99999999999994" width="772.61" height="398.56" as="geometry"/>
                </mxCell>
                <mxCell id="CzzSLgVsR-7TkWU17QrE-1" value="&lt;b&gt;&lt;font style=&quot;font-size: 14px;&quot;&gt;LOGO&lt;/font&gt;&lt;/b&gt;" style="ellipse;whiteSpace=wrap;html=1;aspect=fixed;fillColor=#fa6800;fontColor=#000000;strokeColor=#C73500;shadow=1;gradientColor=default;" parent="1" vertex="1">
                    <mxGeometry x="240" y="110" width="40" height="40" as="geometry"/>
                </mxCell>
                <mxCell id="CzzSLgVsR-7TkWU17QrE-5" value="s'inscrire" style="rounded=1;whiteSpace=wrap;html=1;shadow=1;glass=0;labelBackgroundColor=none;labelBorderColor=none;sketch=0;strokeColor=#FF3333;strokeWidth=3;fontSize=14;fillColor=#FA6800;gradientColor=default;fontStyle=1;fontColor=#000000;" parent="1" vertex="1">
                    <mxGeometry x="295" y="130" width="90" height="20" as="geometry"/>
                </mxCell>
                <mxCell id="CzzSLgVsR-7TkWU17QrE-6" value="SHOP" style="text;html=1;fontSize=36;fontStyle=1;verticalAlign=middle;align=center;" parent="1" vertex="1">
                    <mxGeometry x="334.79" y="220" width="170" height="40" as="geometry"/>
                </mxCell>
                <mxCell id="CzzSLgVsR-7TkWU17QrE-8" value="" style="rounded=1;whiteSpace=wrap;html=1;shadow=1;glass=0;labelBackgroundColor=none;labelBorderColor=none;sketch=0;strokeColor=#6C7EBF;strokeWidth=3;fontSize=12;fontColor=#000000;fillColor=#333333;gradientColor=default;" parent="1" vertex="1">
                    <mxGeometry x="375" y="320" width="100" height="70" as="geometry"/>
                </mxCell>
                <mxCell id="CzzSLgVsR-7TkWU17QrE-9" value="" style="rounded=1;whiteSpace=wrap;html=1;shadow=1;glass=0;labelBackgroundColor=none;labelBorderColor=none;sketch=0;strokeColor=#6C7EBF;strokeWidth=3;fontSize=12;fontColor=#000000;fillColor=#333333;gradientColor=default;" parent="1" vertex="1">
                    <mxGeometry x="374.99" y="450" width="100" height="70" as="geometry"/>
                </mxCell>
                <mxCell id="CzzSLgVsR-7TkWU17QrE-11" value="" style="rounded=1;whiteSpace=wrap;html=1;shadow=1;glass=0;labelBackgroundColor=none;labelBorderColor=none;sketch=0;strokeColor=#6C7EBF;strokeWidth=3;fontSize=12;fontColor=#000000;fillColor=#333333;gradientColor=default;" parent="1" vertex="1">
                    <mxGeometry x="375" y="585" width="100" height="70" as="geometry"/>
                </mxCell>
                <mxCell id="CzzSLgVsR-7TkWU17QrE-13" value="" style="strokeWidth=1;shadow=0;dashed=0;align=center;html=1;shape=mxgraph.mockup.forms.searchBox;strokeColor=#999999;mainText=;strokeColor2=#008cff;fontColor=#666666;fontSize=17;align=left;spacingLeft=3;rounded=1;glass=0;labelBackgroundColor=default;labelBorderColor=none;sketch=0;fillColor=#FA6800;gradientColor=#3399FF;" parent="1" vertex="1">
                    <mxGeometry x="300" y="165" width="80" height="10" as="geometry"/>
                </mxCell>
                <mxCell id="CzzSLgVsR-7TkWU17QrE-14" value="" style="html=1;verticalLabelPosition=bottom;align=center;labelBackgroundColor=#ffffff;verticalAlign=top;strokeWidth=2;strokeColor=#0080F0;shadow=0;dashed=0;shape=mxgraph.ios7.icons.forward;" parent="1" vertex="1">
                    <mxGeometry x="550" y="678.6800000000001" width="30" height="16.8" as="geometry"/>
                </mxCell>
                <mxCell id="CzzSLgVsR-7TkWU17QrE-15" value="" style="html=1;verticalLabelPosition=bottom;align=center;labelBackgroundColor=#ffffff;verticalAlign=top;strokeWidth=2;strokeColor=#0080F0;shadow=0;dashed=0;shape=mxgraph.ios7.icons.backward;" parent="1" vertex="1">
                    <mxGeometry x="290" y="678.6800000000001" width="30" height="16.8" as="geometry"/>
                </mxCell>
                <mxCell id="hGchdgU5TtBndtZx2GDk-1" value="&lt;div style=&quot;&quot;&gt;&lt;span style=&quot;font-size: 19px;&quot;&gt;&lt;b&gt;footer : conditions generales&lt;/b&gt;&lt;/span&gt;&lt;/div&gt;" style="rounded=1;whiteSpace=wrap;html=1;fillColor=#ffcd28;strokeColor=#d79b00;gradientColor=#d3a527;shadow=0;glass=1;align=center;" parent="1" vertex="1">
                    <mxGeometry x="245" y="780" width="360" height="50" as="geometry"/>
                </mxCell>
                <mxCell id="r4HYhTOnLvsZpvfgQr2K-1" value="" style="shape=actor;whiteSpace=wrap;html=1;labelBackgroundColor=#FFB366;fontColor=#FFB366;fillColor=#FFB366;gradientColor=default;strokeColor=#FF3333;" parent="1" vertex="1">
                    <mxGeometry x="414" y="120" width="36" height="40" as="geometry"/>
                </mxCell>
                <mxCell id="Sb55IP0janUscoOIEqBG-1" value="&lt;b&gt;&lt;font style=&quot;font-size: 14px;&quot;&gt;LOGO&lt;/font&gt;&lt;/b&gt;" style="ellipse;whiteSpace=wrap;html=1;aspect=fixed;fillColor=#fa6800;fontColor=#000000;strokeColor=#C73500;shadow=1;gradientColor=default;" parent="1" vertex="1">
                    <mxGeometry x="565" y="785" width="40" height="40" as="geometry"/>
                </mxCell>
                <mxCell id="tMqy_ceM_ShaGfExOjlA-1" value="" style="rounded=1;whiteSpace=wrap;html=1;labelBackgroundColor=#FFB366;strokeColor=#FF3333;fontSize=23;fontColor=#000000;fillColor=#FF9933;gradientColor=#757575;" parent="1" vertex="1">
                    <mxGeometry x="545" y="115" width="60" height="50" as="geometry"/>
                </mxCell>
            </root>
        </mxGraphModel>
    </diagram>
    <diagram id="iIschC6XTg3WmaxmoiUP" name="mobile PAGE 1">
        <mxGraphModel dx="1081" dy="1633" grid="1" gridSize="10" guides="1" tooltips="1" connect="1" arrows="1" fold="1" page="1" pageScale="1" pageWidth="827" pageHeight="1169" math="0" shadow="0">
            <root>
                <mxCell id="0"/>
                <mxCell id="1" parent="0"/>
                <mxCell id="1S16q0T0ZqyI3OOK7Roj-1" value="" style="rounded=1;whiteSpace=wrap;html=1;rotation=90;arcSize=17;" parent="1" vertex="1">
                    <mxGeometry x="43.69500000000001" y="-860.015" width="772.61" height="398.56" as="geometry"/>
                </mxCell>
                <mxCell id="oArU__EUS0XSa3amsUDT-1" value="&lt;font style=&quot;font-size: 14px;&quot;&gt;&lt;b&gt;LOGO&lt;/b&gt;&lt;/font&gt;" style="ellipse;whiteSpace=wrap;html=1;aspect=fixed;fillColor=#fa6800;strokeColor=#C73500;shadow=1;fontColor=#000000;gradientColor=default;" parent="1" vertex="1">
                    <mxGeometry x="240" y="-1010" width="60" height="60" as="geometry"/>
                </mxCell>
                <mxCell id="oArU__EUS0XSa3amsUDT-4" value="&lt;font style=&quot;font-size: 20px;&quot;&gt;BANNIERE&lt;br&gt;&lt;/font&gt;" style="rounded=1;whiteSpace=wrap;html=1;fontStyle=1;fillColor=#FF6666;strokeColor=#6c8ebf;gradientColor=#3399FF;glass=1;" parent="1" vertex="1">
                    <mxGeometry x="258.75" y="-850" width="342.5" height="30" as="geometry"/>
                </mxCell>
                <mxCell id="oArU__EUS0XSa3amsUDT-5" value="&lt;div style=&quot;&quot;&gt;&lt;span style=&quot;font-size: 19px;&quot;&gt;&lt;b&gt;conditions generales&lt;/b&gt;&lt;/span&gt;&lt;/div&gt;" style="rounded=1;whiteSpace=wrap;html=1;fillColor=#ffcd28;strokeColor=#d79b00;gradientColor=#d3a527;shadow=0;glass=1;align=center;" parent="1" vertex="1">
                    <mxGeometry x="269" y="-340" width="321" height="59" as="geometry"/>
                </mxCell>
                <mxCell id="oArU__EUS0XSa3amsUDT-6" value="&lt;b&gt;&lt;font style=&quot;font-size: 14px;&quot;&gt;LOGO&lt;/font&gt;&lt;/b&gt;" style="ellipse;whiteSpace=wrap;html=1;aspect=fixed;fillColor=#fa6800;fontColor=#000000;strokeColor=#C73500;shadow=1;gradientColor=default;" parent="1" vertex="1">
                    <mxGeometry x="544.11" y="-321" width="40" height="40" as="geometry"/>
                </mxCell>
                <mxCell id="oArU__EUS0XSa3amsUDT-8" value="&lt;b&gt;TEXTE&lt;/b&gt;" style="whiteSpace=wrap;html=1;aspect=fixed;fontSize=14;fillColor=#FFFF66;gradientColor=#D3A527;strokeColor=#d79b00;rounded=1;" parent="1" vertex="1">
                    <mxGeometry x="374.5" y="-760" width="110" height="110" as="geometry"/>
                </mxCell>
                <mxCell id="oArU__EUS0XSa3amsUDT-9" style="edgeStyle=none;html=1;entryX=1;entryY=0.5;entryDx=0;entryDy=0;entryPerimeter=0;fontSize=30;exitX=1;exitY=0.5;exitDx=0;exitDy=0;exitPerimeter=0;" parent="1" source="oArU__EUS0XSa3amsUDT-16" target="oArU__EUS0XSa3amsUDT-16" edge="1">
                    <mxGeometry relative="1" as="geometry"/>
                </mxCell>
                <mxCell id="oArU__EUS0XSa3amsUDT-10" value="&lt;p style=&quot;line-height: 120%;&quot;&gt;PERSONNAGE&lt;/p&gt;" style="rounded=1;whiteSpace=wrap;html=1;fontSize=14;rotation=90;shadow=1;fillColor=#FF6666;strokeColor=#6C7EBF;gradientColor=#3399FF;dashed=1;strokeWidth=3;flipH=0;direction=west;flipV=1;imageAspect=0;" parent="1" vertex="1">
                    <mxGeometry x="250" y="-510" width="190" height="100" as="geometry"/>
                </mxCell>
                <mxCell id="oArU__EUS0XSa3amsUDT-11" value="PERSONNAGE" style="rounded=1;whiteSpace=wrap;html=1;fontSize=14;rotation=90;verticalAlign=middle;shadow=1;fillColor=#FF6666;gradientColor=#3399FF;strokeColor=#6c8ebf;dashed=1;strokeWidth=3;" parent="1" vertex="1">
                    <mxGeometry x="411.25" y="-507.5" width="190" height="97.5" as="geometry"/>
                </mxCell>
                <mxCell id="oArU__EUS0XSa3amsUDT-15" value="Naruto" style="text;html=1;fontSize=30;fontStyle=1;verticalAlign=middle;align=center;" parent="1" vertex="1">
                    <mxGeometry x="280" y="-910" width="300" height="60" as="geometry"/>
                </mxCell>
                <mxCell id="oArU__EUS0XSa3amsUDT-16" value="" style="shape=singleArrow;direction=west;whiteSpace=wrap;html=1;fontSize=30;arrowWidth=0.39896697998046876;arrowSize=0.45026041666666666;" parent="1" vertex="1">
                    <mxGeometry x="230" y="-461.45" width="20" height="20" as="geometry"/>
                </mxCell>
                <mxCell id="oArU__EUS0XSa3amsUDT-17" value="" style="shape=singleArrow;whiteSpace=wrap;html=1;fontSize=30;arrowWidth=0.31563262939453124;arrowSize=0.5052998860677084;" parent="1" vertex="1">
                    <mxGeometry x="601.25" y="-461.45" width="18.75" height="20" as="geometry"/>
                </mxCell>
                <mxCell id="oArU__EUS0XSa3amsUDT-30" style="edgeStyle=none;html=1;exitX=0.1;exitY=0.5;exitDx=0;exitDy=0;exitPerimeter=0;fontColor=#FFB366;" parent="1" source="oArU__EUS0XSa3amsUDT-18" target="1S16q0T0ZqyI3OOK7Roj-1" edge="1">
                    <mxGeometry relative="1" as="geometry"/>
                </mxCell>
                <mxCell id="oArU__EUS0XSa3amsUDT-18" value="" style="shape=actor;whiteSpace=wrap;html=1;shadow=1;fontSize=30;fillColor=#ffcd28;gradientColor=default;strokeColor=#FF3333;" parent="1" vertex="1">
                    <mxGeometry x="430" y="-1020" width="20" height="30" as="geometry"/>
                </mxCell>
                <mxCell id="oArU__EUS0XSa3amsUDT-19" value="&lt;b&gt;Personnages&lt;/b&gt;" style="rounded=1;whiteSpace=wrap;html=1;shadow=1;fontSize=30;gradientColor=default;" parent="1" vertex="1">
                    <mxGeometry x="306.3" y="-614" width="240" height="30" as="geometry"/>
                </mxCell>
                <mxCell id="oArU__EUS0XSa3amsUDT-20" value="" style="shape=image;html=1;verticalLabelPosition=bottom;verticalAlign=top;imageAspect=1;aspect=fixed;image=img/clipart/Gear_128x128.png;rounded=1;shadow=0;glass=1;fontSize=30;gradientColor=default;labelBackgroundColor=#FF6666;labelBorderColor=default;" parent="1" vertex="1">
                    <mxGeometry x="527.05" y="-604" width="17.06" height="20" as="geometry"/>
                </mxCell>
                <mxCell id="oArU__EUS0XSa3amsUDT-23" value="s'inscrire" style="rounded=1;whiteSpace=wrap;html=1;shadow=1;glass=0;labelBackgroundColor=none;labelBorderColor=none;sketch=0;strokeColor=#FF3333;strokeWidth=3;fontSize=14;fillColor=#FA6800;gradientColor=default;fontStyle=1;fontColor=#000000;" parent="1" vertex="1">
                    <mxGeometry x="310" y="-1010" width="90" height="20" as="geometry"/>
                </mxCell>
                <mxCell id="oArU__EUS0XSa3amsUDT-25" value="" style="strokeWidth=1;shadow=0;dashed=0;align=center;html=1;shape=mxgraph.mockup.forms.searchBox;strokeColor=#999999;mainText=;strokeColor2=#008cff;fontColor=#666666;fontSize=17;align=left;spacingLeft=3;rounded=1;glass=0;labelBackgroundColor=default;labelBorderColor=none;sketch=0;fillColor=#FA6800;gradientColor=#3399FF;" parent="1" vertex="1">
                    <mxGeometry x="300" y="-970" width="150" height="20" as="geometry"/>
                </mxCell>
                <mxCell id="QjMOKfoDXhwGiH66q95B-1" value="" style="rounded=1;whiteSpace=wrap;html=1;labelBackgroundColor=#FFB366;strokeColor=#FF3333;fontSize=23;fontColor=#000000;fillColor=#FF9933;gradientColor=#757575;" parent="1" vertex="1">
                    <mxGeometry x="534.11" y="-1020" width="60" height="50" as="geometry"/>
                </mxCell>
            </root>
        </mxGraphModel>
    </diagram>
    <diagram id="zqsecrS-d81nUcOc8yEP" name="mobile page 2">
        <mxGraphModel dx="3128" dy="2329" grid="1" gridSize="10" guides="1" tooltips="1" connect="1" arrows="1" fold="1" page="1" pageScale="1" pageWidth="827" pageHeight="1169" math="0" shadow="0">
            <root>
                <mxCell id="0"/>
                <mxCell id="1" parent="0"/>
                <mxCell id="fYzglFrY6R2Xiy0MuYRR-9" style="edgeStyle=none;html=1;entryX=1;entryY=0.5;entryDx=0;entryDy=0;entryPerimeter=0;fontSize=30;exitX=1;exitY=0.5;exitDx=0;exitDy=0;exitPerimeter=0;" parent="1" edge="1">
                    <mxGeometry relative="1" as="geometry">
                        <mxPoint x="17" y="740" as="sourcePoint"/>
                        <mxPoint x="17" y="740" as="targetPoint"/>
                    </mxGeometry>
                </mxCell>
                <mxCell id="WSpCw4r03GQQG9YfIDlA-1" value="" style="rounded=1;whiteSpace=wrap;html=1;rotation=90;arcSize=17;fontStyle=1" parent="1" vertex="1">
                    <mxGeometry x="39.995000000000104" y="-919.995" width="772.61" height="398.56" as="geometry"/>
                </mxCell>
                <mxCell id="D5Hztk5lRkhYMiiuV2p9-1" value="&lt;font style=&quot;font-size: 14px;&quot;&gt;&lt;b&gt;LOGO&lt;/b&gt;&lt;/font&gt;" style="ellipse;whiteSpace=wrap;html=1;aspect=fixed;fillColor=#fa6800;strokeColor=#C73500;shadow=1;fontColor=#000000;gradientColor=default;" parent="1" vertex="1">
                    <mxGeometry x="250" y="-1070" width="60" height="60" as="geometry"/>
                </mxCell>
                <mxCell id="D5Hztk5lRkhYMiiuV2p9-9" style="edgeStyle=none;html=1;entryX=1;entryY=0.5;entryDx=0;entryDy=0;entryPerimeter=0;fontSize=30;exitX=1;exitY=0.5;exitDx=0;exitDy=0;exitPerimeter=0;" parent="1" edge="1">
                    <mxGeometry relative="1" as="geometry">
                        <mxPoint x="30" y="870" as="sourcePoint"/>
                        <mxPoint x="30" y="870" as="targetPoint"/>
                    </mxGeometry>
                </mxCell>
                <mxCell id="4oel_yXjB-NtX0gkkApN-1" value="s'inscrire" style="rounded=1;whiteSpace=wrap;html=1;shadow=1;glass=0;labelBackgroundColor=none;labelBorderColor=none;sketch=0;strokeColor=#FF3333;strokeWidth=3;fontSize=14;fillColor=#FA6800;gradientColor=default;fontStyle=1;fontColor=#000000;" parent="1" vertex="1">
                    <mxGeometry x="324" y="-1080" width="90" height="20" as="geometry"/>
                </mxCell>
                <mxCell id="vsTf3R3_4BnJ16vrSDgg-1" value="" style="strokeWidth=1;shadow=0;dashed=0;align=center;html=1;shape=mxgraph.mockup.forms.searchBox;strokeColor=#999999;mainText=;strokeColor2=#008cff;fontColor=#666666;fontSize=17;align=left;spacingLeft=3;rounded=1;glass=0;labelBackgroundColor=default;labelBorderColor=none;sketch=0;fillColor=#FA6800;gradientColor=#3399FF;" parent="1" vertex="1">
                    <mxGeometry x="324" y="-1040" width="130" height="20" as="geometry"/>
                </mxCell>
                <mxCell id="R93NVeqNT9-NNwPlnwRF-1" value="" style="shape=actor;whiteSpace=wrap;html=1;shadow=1;fontSize=30;fillColor=#ffcd28;gradientColor=default;strokeColor=#FF3333;" parent="1" vertex="1">
                    <mxGeometry x="440" y="-1085" width="20" height="30" as="geometry"/>
                </mxCell>
                <mxCell id="BK1Sx7aH-rTbG2arzD7F-1" value="&lt;div style=&quot;&quot;&gt;&lt;b style=&quot;font-size: 19px; background-color: initial;&quot;&gt;condition generales&lt;/b&gt;&lt;/div&gt;" style="rounded=1;whiteSpace=wrap;html=1;fillColor=#ffcd28;strokeColor=#d79b00;gradientColor=#d3a527;shadow=0;glass=1;align=center;" parent="1" vertex="1">
                    <mxGeometry x="260" y="-410" width="340" height="60" as="geometry"/>
                </mxCell>
                <mxCell id="BK1Sx7aH-rTbG2arzD7F-2" value="&lt;b&gt;&lt;font style=&quot;font-size: 14px;&quot;&gt;LOGO&lt;/font&gt;&lt;/b&gt;" style="ellipse;whiteSpace=wrap;html=1;aspect=fixed;fillColor=#fa6800;fontColor=#000000;strokeColor=#C73500;shadow=1;gradientColor=default;" parent="1" vertex="1">
                    <mxGeometry x="560" y="-400" width="40" height="40" as="geometry"/>
                </mxCell>
                <mxCell id="BK1Sx7aH-rTbG2arzD7F-3" value="vidÃ©o" style="rounded=1;whiteSpace=wrap;html=1;shadow=1;glass=0;labelBackgroundColor=none;labelBorderColor=none;sketch=0;strokeColor=#6C7EBF;strokeWidth=3;fontSize=14;fontColor=#000000;fillColor=#FFFF66;gradientColor=#3399FF;" parent="1" vertex="1">
                    <mxGeometry x="250" y="-870" width="160" height="70" as="geometry"/>
                </mxCell>
                <mxCell id="BK1Sx7aH-rTbG2arzD7F-4" value="vidÃ©o" style="rounded=1;whiteSpace=wrap;html=1;shadow=1;glass=0;labelBackgroundColor=none;labelBorderColor=none;sketch=0;strokeColor=#6C7EBF;strokeWidth=3;fontSize=14;fontColor=#000000;fillColor=#FFFF66;gradientColor=#3399FF;" parent="1" vertex="1">
                    <mxGeometry x="440" y="-870" width="160" height="70" as="geometry"/>
                </mxCell>
                <mxCell id="BK1Sx7aH-rTbG2arzD7F-6" value="vidÃ©o" style="rounded=1;whiteSpace=wrap;html=1;shadow=1;glass=0;labelBackgroundColor=none;labelBorderColor=none;sketch=0;strokeColor=#6C7EBF;strokeWidth=3;fontSize=14;fontColor=#000000;fillColor=#FFFF66;gradientColor=#3399FF;" parent="1" vertex="1">
                    <mxGeometry x="250" y="-740" width="160" height="70" as="geometry"/>
                </mxCell>
                <mxCell id="BK1Sx7aH-rTbG2arzD7F-7" value="vidÃ©o" style="rounded=1;whiteSpace=wrap;html=1;shadow=1;glass=0;labelBackgroundColor=none;labelBorderColor=none;sketch=0;strokeColor=#6C7EBF;strokeWidth=3;fontSize=14;fontColor=#000000;fillColor=#FFFF66;gradientColor=#3399FF;" parent="1" vertex="1">
                    <mxGeometry x="430" y="-740" width="160" height="70" as="geometry"/>
                </mxCell>
                <mxCell id="BK1Sx7aH-rTbG2arzD7F-12" value="TEXTE" style="rounded=1;whiteSpace=wrap;html=1;shadow=1;glass=0;labelBackgroundColor=none;labelBorderColor=none;sketch=0;strokeColor=#6C7EBF;strokeWidth=3;fontSize=16;fontColor=#000000;fillColor=#FFFF66;gradientColor=#F0F0F0;" parent="1" vertex="1">
                    <mxGeometry x="270" y="-590" width="120" height="68.56" as="geometry"/>
                </mxCell>
                <mxCell id="mtTePNzPJswe-l1DPwvA-1" value="Jeux vidÃ©o" style="text;html=1;fontSize=27;fontStyle=1;verticalAlign=middle;align=center;" parent="1" vertex="1">
                    <mxGeometry x="280" y="-970" width="300" height="60" as="geometry"/>
                </mxCell>
                <mxCell id="znAH9J05p2sln_X0PteS-1" value="" style="rounded=1;whiteSpace=wrap;html=1;labelBackgroundColor=#FFB366;strokeColor=#FF3333;fontSize=23;fontColor=#000000;fillColor=#FF9933;gradientColor=#757575;" parent="1" vertex="1">
                    <mxGeometry x="530" y="-1080" width="60" height="50" as="geometry"/>
                </mxCell>
            </root>
        </mxGraphModel>
    </diagram>
    <diagram id="t4JxPmWWsEFp4de8_EM2" name="mobile page 3">
        <mxGraphModel dx="2502" dy="928" grid="1" gridSize="10" guides="1" tooltips="1" connect="1" arrows="1" fold="1" page="1" pageScale="1" pageWidth="827" pageHeight="1169" math="0" shadow="0">
            <root>
                <mxCell id="0"/>
                <mxCell id="1" parent="0"/>
                <mxCell id="mcPeHBb-ylScsSXxdhJd-1" value="" style="rounded=1;whiteSpace=wrap;html=1;labelBackgroundColor=#FFB366;rotation=90;" parent="1" vertex="1">
                    <mxGeometry x="100.63" y="258.13" width="648.75" height="337.5" as="geometry"/>
                </mxCell>
                <mxCell id="EVEEKm35f8jxTkQopuC9-1" value="&lt;b&gt;&lt;font style=&quot;font-size: 14px;&quot;&gt;LOGO&lt;/font&gt;&lt;/b&gt;" style="ellipse;whiteSpace=wrap;html=1;aspect=fixed;fillColor=#fa6800;fontColor=#000000;strokeColor=#C73500;shadow=1;gradientColor=default;" parent="1" vertex="1">
                    <mxGeometry x="270" y="120" width="50" height="50" as="geometry"/>
                </mxCell>
                <mxCell id="EVEEKm35f8jxTkQopuC9-2" value="&lt;div style=&quot;&quot;&gt;&lt;b style=&quot;font-size: 19px; background-color: initial;&quot;&gt;conditions gÃ©nÃ©rales&lt;/b&gt;&lt;/div&gt;" style="rounded=1;whiteSpace=wrap;html=1;fillColor=#ffcd28;strokeColor=#d79b00;gradientColor=#d3a527;shadow=0;glass=1;align=center;" parent="1" vertex="1">
                    <mxGeometry x="270" y="670" width="310" height="49" as="geometry"/>
                </mxCell>
                <mxCell id="EVEEKm35f8jxTkQopuC9-7" value="s'inscrire" style="rounded=1;whiteSpace=wrap;html=1;shadow=1;glass=0;labelBackgroundColor=none;labelBorderColor=none;sketch=0;strokeColor=#FF3333;strokeWidth=3;fontSize=14;fillColor=#FA6800;gradientColor=default;fontStyle=1;fontColor=#000000;" parent="1" vertex="1">
                    <mxGeometry x="335" y="120" width="90" height="20" as="geometry"/>
                </mxCell>
                <mxCell id="EVEEKm35f8jxTkQopuC9-8" value="" style="shape=actor;whiteSpace=wrap;html=1;shadow=1;fontSize=30;fillColor=#ffcd28;gradientColor=default;strokeColor=#FF3333;" parent="1" vertex="1">
                    <mxGeometry x="440" y="115" width="20" height="30" as="geometry"/>
                </mxCell>
                <mxCell id="EVEEKm35f8jxTkQopuC9-9" value="" style="strokeWidth=1;shadow=0;dashed=0;align=center;html=1;shape=mxgraph.mockup.forms.searchBox;strokeColor=#999999;mainText=;strokeColor2=#008cff;fontColor=#666666;fontSize=17;align=left;spacingLeft=3;rounded=1;glass=0;labelBackgroundColor=default;labelBorderColor=none;sketch=0;fillColor=#FA6800;gradientColor=#3399FF;" parent="1" vertex="1">
                    <mxGeometry x="320" y="160" width="120" height="20" as="geometry"/>
                </mxCell>
                <mxCell id="EVEEKm35f8jxTkQopuC9-10" value="PERSONNAGES" style="text;html=1;fontSize=20;fontStyle=1;verticalAlign=middle;align=center;" parent="1" vertex="1">
                    <mxGeometry x="320" y="230" width="200" height="20" as="geometry"/>
                </mxCell>
                <mxCell id="EVEEKm35f8jxTkQopuC9-11" value="" style="edgeStyle=none;html=1;fontSize=36;fontColor=#000000;" parent="1" source="EVEEKm35f8jxTkQopuC9-12" target="EVEEKm35f8jxTkQopuC9-22" edge="1">
                    <mxGeometry relative="1" as="geometry"/>
                </mxCell>
                <mxCell id="EVEEKm35f8jxTkQopuC9-12" value="&lt;p style=&quot;line-height: 120%;&quot;&gt;PERSONNAGE&lt;/p&gt;" style="rounded=1;whiteSpace=wrap;html=1;fontSize=14;rotation=90;shadow=1;fillColor=#FF6666;strokeColor=#6C7EBF;gradientColor=#3399FF;dashed=1;strokeWidth=3;flipH=0;direction=west;flipV=1;imageAspect=0;" parent="1" vertex="1">
                    <mxGeometry x="230" y="365" width="240" height="90" as="geometry"/>
                </mxCell>
                <mxCell id="EVEEKm35f8jxTkQopuC9-13" value="" style="edgeStyle=none;html=1;fontSize=36;fontColor=#000000;" parent="1" edge="1">
                    <mxGeometry relative="1" as="geometry">
                        <mxPoint x="621" y="515" as="sourcePoint"/>
                        <mxPoint x="621" y="545" as="targetPoint"/>
                    </mxGeometry>
                </mxCell>
                <mxCell id="EVEEKm35f8jxTkQopuC9-17" value="" style="edgeStyle=none;html=1;fontSize=36;fontColor=#000000;" parent="1" source="EVEEKm35f8jxTkQopuC9-18" target="EVEEKm35f8jxTkQopuC9-20" edge="1">
                    <mxGeometry relative="1" as="geometry"/>
                </mxCell>
                <mxCell id="EVEEKm35f8jxTkQopuC9-18" value="&lt;p style=&quot;line-height: 120%;&quot;&gt;PERSONNAGE&lt;/p&gt;" style="rounded=1;whiteSpace=wrap;html=1;fontSize=14;rotation=90;shadow=1;fillColor=#FF6666;strokeColor=#6C7EBF;gradientColor=#3399FF;dashed=1;strokeWidth=3;flipH=0;direction=west;flipV=1;imageAspect=0;" parent="1" vertex="1">
                    <mxGeometry x="365" y="365" width="240" height="90" as="geometry"/>
                </mxCell>
                <mxCell id="EVEEKm35f8jxTkQopuC9-20" value="descriptif" style="whiteSpace=wrap;html=1;fontSize=14;fillColor=#FF6666;strokeColor=#6C7EBF;rounded=1;shadow=1;gradientColor=#3399FF;dashed=1;strokeWidth=3;" parent="1" vertex="1">
                    <mxGeometry x="425" y="570" width="105" height="45" as="geometry"/>
                </mxCell>
                <mxCell id="EVEEKm35f8jxTkQopuC9-22" value="descriptif" style="whiteSpace=wrap;html=1;fontSize=14;fillColor=#FF6666;strokeColor=#6C7EBF;rounded=1;shadow=1;gradientColor=#3399FF;dashed=1;strokeWidth=3;" parent="1" vertex="1">
                    <mxGeometry x="300" y="570" width="109" height="45" as="geometry"/>
                </mxCell>
                <mxCell id="EVEEKm35f8jxTkQopuC9-23" value="" style="shape=singleArrow;direction=west;whiteSpace=wrap;html=1;fontSize=30;arrowWidth=0.39896697998046876;arrowSize=0.45026041666666666;" parent="1" vertex="1">
                    <mxGeometry x="260" y="500" width="29" height="20" as="geometry"/>
                </mxCell>
                <mxCell id="EVEEKm35f8jxTkQopuC9-24" value="" style="shape=singleArrow;whiteSpace=wrap;html=1;fontSize=30;arrowWidth=0.31563262939453124;arrowSize=0.5052998860677084;" parent="1" vertex="1">
                    <mxGeometry x="565" y="500" width="30" height="20" as="geometry"/>
                </mxCell>
                <mxCell id="EVEEKm35f8jxTkQopuC9-50" value="&lt;b&gt;&lt;font style=&quot;font-size: 14px;&quot;&gt;LOGO&lt;/font&gt;&lt;/b&gt;" style="ellipse;whiteSpace=wrap;html=1;aspect=fixed;fillColor=#fa6800;fontColor=#000000;strokeColor=#C73500;shadow=1;gradientColor=default;" parent="1" vertex="1">
                    <mxGeometry x="549.5" y="679.25" width="30.5" height="30.5" as="geometry"/>
                </mxCell>
                <mxCell id="BqpX-Y7ro1b-Zd59Q-E8-18" value="" style="rounded=1;whiteSpace=wrap;html=1;labelBackgroundColor=#FFB366;strokeColor=#FF3333;fontSize=23;fontColor=#000000;fillColor=#FF9933;gradientColor=#757575;" parent="1" vertex="1">
                    <mxGeometry x="510" y="130" width="55" height="50" as="geometry"/>
                </mxCell>
            </root>
        </mxGraphModel>
    </diagram>
    <diagram id="04KpaJtVKdxGGE8riwa2" name="mobile page 4">
        <mxGraphModel dx="1251" dy="464" grid="1" gridSize="10" guides="1" tooltips="1" connect="1" arrows="1" fold="1" page="1" pageScale="1" pageWidth="827" pageHeight="1169" math="0" shadow="0">
            <root>
                <mxCell id="0"/>
                <mxCell id="1" parent="0"/>
                <mxCell id="9_sntYFNOpgeD5O-wNzR-1" value="" style="rounded=1;whiteSpace=wrap;html=1;labelBackgroundColor=#FFB366;fontSize=20;rotation=90;" parent="1" vertex="1">
                    <mxGeometry x="65.55" y="163.58" width="660.54" height="393.37" as="geometry"/>
                </mxCell>
                <mxCell id="uBSA4qa9Yx8nnPnpGkwq-1" value="&lt;b&gt;&lt;font style=&quot;font-size: 14px;&quot;&gt;LOGO&lt;/font&gt;&lt;/b&gt;" style="ellipse;whiteSpace=wrap;html=1;aspect=fixed;fillColor=#fa6800;fontColor=#000000;strokeColor=#C73500;shadow=1;gradientColor=default;" parent="1" vertex="1">
                    <mxGeometry x="210" y="50" width="60" height="60" as="geometry"/>
                </mxCell>
                <mxCell id="uBSA4qa9Yx8nnPnpGkwq-5" value="s'inscrire" style="rounded=1;whiteSpace=wrap;html=1;shadow=1;glass=0;labelBackgroundColor=none;labelBorderColor=none;sketch=0;strokeColor=#FF3333;strokeWidth=3;fontSize=14;fillColor=#FA6800;gradientColor=default;fontStyle=1;fontColor=#000000;" parent="1" vertex="1">
                    <mxGeometry x="285" y="60" width="90" height="20" as="geometry"/>
                </mxCell>
                <mxCell id="uBSA4qa9Yx8nnPnpGkwq-6" value="" style="shape=actor;whiteSpace=wrap;html=1;shadow=1;fontSize=30;fillColor=#ffcd28;gradientColor=default;strokeColor=#FF3333;" parent="1" vertex="1">
                    <mxGeometry x="414" y="55" width="20" height="30" as="geometry"/>
                </mxCell>
                <mxCell id="uBSA4qa9Yx8nnPnpGkwq-7" value="" style="strokeWidth=1;shadow=0;dashed=0;align=center;html=1;shape=mxgraph.mockup.forms.searchBox;strokeColor=#999999;mainText=;strokeColor2=#008cff;fontColor=#666666;fontSize=17;align=left;spacingLeft=3;rounded=1;glass=0;labelBackgroundColor=default;labelBorderColor=none;sketch=0;fillColor=#FA6800;gradientColor=#3399FF;" parent="1" vertex="1">
                    <mxGeometry x="280" y="100" width="110" height="20" as="geometry"/>
                </mxCell>
                <mxCell id="uBSA4qa9Yx8nnPnpGkwq-8" value="CREER UN WIKI" style="text;html=1;fontSize=23;fontStyle=1;verticalAlign=middle;align=center;" parent="1" vertex="1">
                    <mxGeometry x="245.82" y="160" width="300" height="60" as="geometry"/>
                </mxCell>
                <mxCell id="uBSA4qa9Yx8nnPnpGkwq-9" value="USERNAME" style="shape=ext;double=1;rounded=0;whiteSpace=wrap;html=1;shadow=1;glass=0;labelBackgroundColor=none;labelBorderColor=none;sketch=0;strokeColor=#6C7EBF;strokeWidth=3;fontSize=12;fontColor=#000000;fillColor=#000000;gradientColor=#F0F0F0;" parent="1" vertex="1">
                    <mxGeometry x="270" y="300" width="230" height="30" as="geometry"/>
                </mxCell>
                <mxCell id="uBSA4qa9Yx8nnPnpGkwq-10" value="" style="sketch=0;pointerEvents=1;shadow=0;dashed=0;html=1;strokeColor=none;fillColor=#333333;labelPosition=center;verticalLabelPosition=bottom;verticalAlign=top;outlineConnect=0;align=center;shape=mxgraph.office.users.mail_user;rounded=1;glass=0;labelBackgroundColor=none;labelBorderColor=none;strokeWidth=3;fontSize=12;fontColor=#000000;gradientColor=default;" parent="1" vertex="1">
                    <mxGeometry x="350" y="410" width="85.5" height="80" as="geometry"/>
                </mxCell>
                <mxCell id="uBSA4qa9Yx8nnPnpGkwq-11" value="NAME COMMUNITY.WIKI" style="shape=ext;double=1;rounded=0;whiteSpace=wrap;html=1;shadow=1;glass=0;labelBackgroundColor=none;labelBorderColor=none;sketch=0;strokeColor=#6C7EBF;strokeWidth=3;fontSize=12;fontColor=#000000;fillColor=#333333;gradientColor=default;" parent="1" vertex="1">
                    <mxGeometry x="272.82" y="250" width="227.18" height="30" as="geometry"/>
                </mxCell>
                <mxCell id="uBSA4qa9Yx8nnPnpGkwq-12" value="LANGUAGE" style="shape=ext;double=1;rounded=0;whiteSpace=wrap;html=1;shadow=1;glass=0;labelBackgroundColor=none;labelBorderColor=none;sketch=0;strokeColor=#6C7EBF;strokeWidth=3;fontSize=12;fontColor=#000000;fillColor=#333333;gradientColor=default;" parent="1" vertex="1">
                    <mxGeometry x="270" y="350" width="230" height="30" as="geometry"/>
                </mxCell>
                <mxCell id="uBSA4qa9Yx8nnPnpGkwq-13" value="&lt;div style=&quot;&quot;&gt;&lt;span style=&quot;font-size: 19px;&quot;&gt;&lt;b&gt;conditions generales&lt;/b&gt;&lt;/span&gt;&lt;/div&gt;" style="rounded=1;whiteSpace=wrap;html=1;fillColor=#ffcd28;strokeColor=#d79b00;gradientColor=#d3a527;shadow=0;glass=1;align=center;" parent="1" vertex="1">
                    <mxGeometry x="210" y="620" width="360" height="50" as="geometry"/>
                </mxCell>
                <mxCell id="uBSA4qa9Yx8nnPnpGkwq-14" value="&lt;b&gt;&lt;font style=&quot;font-size: 14px;&quot;&gt;LOGO&lt;/font&gt;&lt;/b&gt;" style="ellipse;whiteSpace=wrap;html=1;aspect=fixed;fillColor=#fa6800;fontColor=#000000;strokeColor=#C73500;shadow=1;gradientColor=default;" parent="1" vertex="1">
                    <mxGeometry x="520" y="627.66" width="42.34" height="42.34" as="geometry"/>
                </mxCell>
                <mxCell id="uBSA4qa9Yx8nnPnpGkwq-16" value="" style="points=[[0.145,0.145,0],[0.5,0,0],[0.855,0.145,0],[1,0.5,0],[0.855,0.855,0],[0.5,1,0],[0.145,0.855,0],[0,0.5,0]];shape=mxgraph.bpmn.event;html=1;verticalLabelPosition=bottom;labelBackgroundColor=#ffffff;verticalAlign=top;align=center;perimeter=ellipsePerimeter;outlineConnect=0;aspect=fixed;outline=boundInt;symbol=cancel;rounded=1;shadow=1;glass=0;labelBorderColor=none;sketch=0;strokeColor=#6C7EBF;strokeWidth=3;fontSize=12;fontColor=#000000;fillColor=#333333;gradientColor=default;" parent="1" vertex="1">
                    <mxGeometry x="508.87" y="504.02" width="36.95" height="36.95" as="geometry"/>
                </mxCell>
                <mxCell id="uBSA4qa9Yx8nnPnpGkwq-17" value="" style="verticalLabelPosition=bottom;verticalAlign=top;html=1;shape=mxgraph.basic.tick;rounded=1;shadow=1;glass=0;labelBackgroundColor=none;labelBorderColor=none;sketch=0;strokeColor=#6C7EBF;strokeWidth=3;fontSize=12;fontColor=#000000;fillColor=#333333;gradientColor=default;" parent="1" vertex="1">
                    <mxGeometry x="225" y="510" width="35" height="25" as="geometry"/>
                </mxCell>
                <mxCell id="TaMlZVH0LS2AiQi4aHvN-1" value="" style="rounded=1;whiteSpace=wrap;html=1;labelBackgroundColor=#FFB366;strokeColor=#FF3333;fontSize=23;fontColor=#000000;fillColor=#FF9933;gradientColor=#757575;" parent="1" vertex="1">
                    <mxGeometry x="500" y="50" width="60" height="60" as="geometry"/>
                </mxCell>
            </root>
        </mxGraphModel>
    </diagram>
</mxfile>